<svg width="44" height="44" viewBox="0 0 44 44" fill="none" xmlns="http://www.w3.org/2000/svg">
<path d="M21.7969 0C9.75586 0 0 9.75586 0 21.7969C0 33.8379 9.75586 43.5938 21.7969 43.5938C33.8379 43.5938 43.5938 33.8379 43.5938 21.7969C43.5938 9.75586 33.8379 0 21.7969 0ZM27.3955 11.3115C28.0635 10.3096 29.5664 10.2832 30.2695 11.3115C31.3594 12.9287 31.5967 14.5547 31.6494 16.1719C31.6055 17.7891 31.3594 19.415 30.2695 21.0322C29.6016 22.0342 28.0986 22.0605 27.3955 21.0322C26.3057 19.415 26.0684 17.7891 26.0156 16.1719C26.0596 14.5547 26.3057 12.9287 27.3955 11.3115ZM13.333 11.3115C14.001 10.3096 15.5039 10.2832 16.207 11.3115C17.2969 12.9287 17.5342 14.5547 17.5869 16.1719C17.543 17.7891 17.2969 19.415 16.207 21.0322C15.5391 22.0342 14.0361 22.0605 13.333 21.0322C12.2432 19.415 12.0059 17.7891 11.9531 16.1719C11.9971 14.5547 12.2432 12.9287 13.333 11.3115ZM21.7969 37.2656C16.4707 37.2656 9.97559 33.8994 9.1582 29.0654C8.98242 28.0283 9.97559 27.167 10.9775 27.4922C13.6318 28.3447 17.5781 28.8281 21.7969 28.8281C26.0156 28.8281 29.9619 28.3447 32.6162 27.4922C33.6182 27.167 34.6025 28.0283 34.4355 29.0654C33.6182 33.8994 27.123 37.2656 21.7969 37.2656Z" fill="#8556AA"/>
</svg>
