<svg width="45" height="41" viewBox="0 0 45 41" fill="none" xmlns="http://www.w3.org/2000/svg">
<path d="M28.1425 19.4277L23.7744 28.1641C23.247 29.2275 21.7177 29.1924 21.2343 28.1113L16.2334 17.0107L13.5966 23.3125H5.32614L21.3662 39.7041C21.9902 40.3457 23.0009 40.3457 23.625 39.7041L39.6738 23.3125H30.0849L28.1425 19.4277ZM41.6338 4.49512L41.4228 4.27539C36.8964 -0.347656 29.4873 -0.347656 24.9521 4.27539L22.5 6.78906L20.0478 4.28418C15.5214 -0.347657 8.10348 -0.347657 3.57711 4.28418L3.36617 4.49512C-0.914099 8.87207 -1.09867 15.8418 2.72457 20.5H11.7246L14.8798 12.9238C15.3545 11.79 16.9541 11.7637 17.4638 12.8887L22.5791 24.2529L26.8857 15.6484C27.4043 14.6113 28.8808 14.6113 29.3994 15.6484L31.8252 20.5H42.2754C46.0986 15.8418 45.914 8.87207 41.6338 4.49512Z" fill="#8556AA"/>
</svg>
