<svg width="32" height="32" viewBox="0 0 32 32" fill="none" xmlns="http://www.w3.org/2000/svg">
<path fill-rule="evenodd" clip-rule="evenodd" d="M12.2466 2.46698C11.2822 2.28143 9.81427 2.15055 8.71332 2.25658C11.4122 2.97559 13.9942 4.31254 15.9493 6.35856C19.8199 10.4108 19.7541 15.8779 14.6607 18.2984C14.2312 18.5021 14.1456 18.7208 14.4929 19.0919C16.364 21.2904 20.1885 22.064 23.6016 21.0087C25.9763 20.2731 28.8364 18.1112 29.3334 16.0072C29.3334 15.9276 29.3318 15.8481 29.3269 15.7686C29.2051 13.6662 27.4113 11.607 26.0076 10.1673C24.3175 8.43606 19.731 3.90996 12.2466 2.46698Z" fill="#8556AA"/>
<path d="M18.7173 22.6853C9.57892 21.9431 11.9569 12.9124 11.9569 12.9124C13.7852 12.8362 16.5121 14.0208 17.6739 14.5708C18.6235 12.0129 17.748 8.90656 15.314 6.35856C13.3853 4.33905 10.8444 3.01204 8.18505 2.2864C2.15206 3.03192 2.22612 15.9111 2.22612 15.9111C2.21624 30.2746 8.53887 29.7876 9.3979 29.7776C18.7173 29.6683 29.3334 20.515 29.3318 16.0038C29.3318 16.0038 26.8205 23.343 18.7173 22.6853Z" fill="#8556AA"/>
</svg>
