<svg width="126" height="39" viewBox="0 0 126 39" fill="none" xmlns="http://www.w3.org/2000/svg">
<g clip-path="url(#clip0_8_2618)">
<path fill-rule="evenodd" clip-rule="evenodd" d="M10.9067 0.270439C9.8571 0.0684796 8.25935 -0.073974 7.06104 0.0414314C9.9986 0.824024 12.809 2.27921 14.9369 4.50618C19.1498 8.91683 19.0782 14.8674 13.5344 17.5019C13.0669 17.7237 12.9738 17.9617 13.3517 18.3656C15.3883 20.7585 19.5511 21.6006 23.266 20.452C25.8507 19.6513 28.9638 17.2981 29.5047 15.0081C29.5047 14.9215 29.5029 14.835 29.4976 14.7484C29.365 12.4601 27.4126 10.2187 25.8847 8.65176C24.0452 6.7674 19.0531 1.84103 10.9067 0.270439Z" fill="white"/>
<path d="M17.9496 22.2768C8.00312 21.4689 10.5914 11.6396 10.5914 11.6396C12.5814 11.5567 15.5494 12.846 16.814 13.4447C17.8475 10.6605 16.8946 7.27948 14.2454 4.50614C12.1462 2.30803 9.38055 0.863658 6.48597 0.0738525C-0.0805576 0.885297 4.62799e-05 14.9034 4.62799e-05 14.9034C-0.0107009 30.5373 6.87108 30.0071 7.80609 29.9963C17.9496 29.8773 29.5047 19.9146 29.5029 15.0044C29.5047 15.0026 26.7695 22.9926 17.9496 22.2768Z" fill="white"/>
<path d="M112.328 5.26709C112.72 5.26709 113.05 5.40413 113.32 5.67462C113.591 5.9469 113.727 6.28049 113.727 6.6754C113.727 7.0703 113.591 7.40389 113.32 7.67618C113.05 7.94846 112.718 8.0837 112.328 8.0837C111.936 8.0837 111.604 7.94846 111.334 7.67618C111.063 7.40389 110.927 7.0703 110.927 6.6754C110.927 6.28049 111.063 5.9469 111.334 5.67462C111.604 5.40233 111.936 5.26709 112.328 5.26709Z" fill="white"/>
<path d="M113.148 10.1954C112.932 9.97897 112.668 9.86897 112.36 9.86176C112.349 9.86176 112.339 9.85815 112.328 9.85815C112.278 9.85815 112.233 9.86537 112.185 9.87078C112.161 9.87258 112.136 9.87258 112.115 9.87799C112.1 9.87979 112.086 9.8834 112.074 9.88701C111.859 9.93209 111.671 10.0331 111.508 10.1972C111.284 10.4226 111.173 10.6966 111.173 11.023V20.1058H113.483V11.0212C113.483 10.6966 113.37 10.4208 113.148 10.1954Z" fill="white"/>
<path d="M94.2422 11.6559C94.0523 11.2466 93.7729 10.8896 93.4003 10.5848C93.0278 10.2783 92.5728 10.0331 92.0319 9.84913C91.4909 9.66521 90.8694 9.57324 90.1672 9.57324C89.3702 9.57324 88.6376 9.70668 87.9676 9.97175C87.2995 10.2368 86.7174 10.6119 86.2248 11.0933C85.7304 11.5766 85.3453 12.1554 85.0695 12.828C84.7919 13.5006 84.6539 14.2472 84.6539 15.0622C84.6539 15.9187 84.7954 16.6779 85.0802 17.3379C85.365 17.9978 85.7519 18.555 86.2463 19.0112C86.7389 19.4675 87.3139 19.8101 87.9694 20.0427C88.625 20.2735 89.3308 20.3889 90.0884 20.3889C90.6294 20.3889 91.1255 20.3474 91.5787 20.2663C92.0319 20.1851 92.4313 20.0896 92.7752 19.9796C92.9436 19.9255 93.0976 19.8714 93.2391 19.8155C93.2409 19.8137 93.2445 19.8137 93.2463 19.8137C93.3556 19.7686 93.4559 19.7001 93.5472 19.6099C93.7281 19.4278 93.8195 19.2042 93.8195 18.9409C93.8195 18.8255 93.7998 18.7191 93.764 18.6199C93.7353 18.537 93.6941 18.4595 93.6422 18.3855C93.6135 18.3459 93.5831 18.3062 93.5472 18.2701C93.3663 18.088 93.1442 17.9978 92.8827 17.9978C92.7519 17.9978 92.6301 18.0213 92.5209 18.0664C92.5209 18.0664 92.5209 18.0664 92.5191 18.0664C92.451 18.0916 92.3847 18.1187 92.3095 18.1439C92.0731 18.225 91.8062 18.2936 91.5088 18.3477C91.2115 18.4018 90.8873 18.4288 90.5362 18.4288C89.4955 18.4288 88.6949 18.2142 88.1342 17.7851C87.5736 17.3559 87.2386 16.7951 87.1312 16.1009C87.4016 16.1135 87.6542 16.1243 87.8906 16.1315C88.1271 16.1387 88.3796 16.1405 88.6501 16.1405C89.8126 16.1405 90.7727 16.063 91.5285 15.9061C92.2862 15.7492 92.8863 15.5329 93.3323 15.2534C93.7783 14.9757 94.09 14.6403 94.2655 14.2544C94.441 13.8667 94.5288 13.4339 94.5288 12.9579C94.5252 12.498 94.4303 12.0635 94.2422 11.6559ZM92.1537 13.5133C92.0731 13.7044 91.9029 13.8739 91.6468 14.0236C91.3906 14.1732 91.0324 14.2958 90.572 14.3914C90.1117 14.487 89.5117 14.5339 88.7683 14.5339C88.4835 14.5339 88.2005 14.5339 87.9175 14.5339C87.6327 14.5339 87.3354 14.5267 87.0255 14.514C87.038 14.1191 87.1168 13.7314 87.2583 13.351C87.3998 12.9705 87.6005 12.6333 87.8566 12.3412C88.1127 12.0491 88.4316 11.8146 88.8095 11.6379C89.1875 11.4612 89.6263 11.3728 90.1278 11.3728C90.7368 11.3728 91.2455 11.5027 91.6575 11.7605C92.0695 12.0184 92.2755 12.4061 92.2755 12.9236C92.2755 13.1238 92.2343 13.3221 92.1537 13.5133Z" fill="white"/>
<path d="M107.664 5.40598C107.442 5.18419 107.171 5.07239 106.851 5.07239C106.53 5.07239 106.258 5.18419 106.037 5.40598C105.817 5.62778 105.708 5.89826 105.706 6.21923C105.706 6.22103 105.706 6.22283 105.706 6.22644C105.706 6.22824 105.706 6.23005 105.706 6.23365V11.1474C105.367 10.711 104.902 10.3414 104.307 10.0348C103.712 9.72827 103.023 9.575 102.24 9.575C101.497 9.575 100.811 9.70844 100.182 9.97351C99.5532 10.2386 99.0051 10.6136 98.5393 11.0951C98.0736 11.5784 97.7082 12.15 97.4449 12.81C97.1816 13.4699 97.0491 14.1948 97.0491 14.9828C97.0491 15.7582 97.187 16.4795 97.4646 17.1467C97.7405 17.8139 98.1238 18.3855 98.611 18.8615C99.0982 19.3376 99.675 19.7126 100.345 19.9831C101.015 20.2554 101.747 20.3924 102.544 20.3924C103.329 20.3924 104.051 20.2698 104.714 20.0246C105.376 19.7794 105.95 19.4115 106.437 18.9228C106.924 18.4324 107.305 17.8211 107.583 17.0854C107.861 16.3497 107.999 15.4859 107.999 14.4924V6.22464C107.997 5.90186 107.886 5.62778 107.664 5.40598ZM105.471 16.328C105.315 16.7373 105.102 17.0836 104.832 17.3685C104.561 17.6534 104.234 17.8788 103.848 18.0411C103.463 18.2052 103.041 18.2863 102.582 18.2863C102.109 18.2863 101.683 18.2016 101.305 18.032C100.927 17.8625 100.599 17.6317 100.322 17.3378C100.044 17.0457 99.8308 16.6977 99.6839 16.2974C99.5353 15.8952 99.46 15.4571 99.46 14.981C99.46 14.505 99.5335 14.0632 99.6839 13.6539C99.8326 13.2463 100.046 12.8965 100.322 12.6026C100.599 12.3105 100.927 12.0797 101.305 11.9084C101.683 11.737 102.109 11.6541 102.582 11.6541C103.041 11.6541 103.463 11.7389 103.848 11.9084C104.234 12.0779 104.561 12.3141 104.832 12.6116C105.102 12.9109 105.315 13.2644 105.471 13.6737C105.627 14.083 105.704 14.5176 105.704 14.9792C105.704 15.4715 105.627 15.9205 105.471 16.328Z" fill="white"/>
<path d="M69.2784 12.094C69.0348 11.5567 68.6944 11.1005 68.2538 10.7272C67.8149 10.3539 67.2901 10.0672 66.6829 9.87068C66.0739 9.67413 65.413 9.57495 64.6965 9.57495C63.98 9.57495 63.3208 9.67413 62.719 9.87068C62.1171 10.0672 61.5977 10.3539 61.1589 10.7272C60.72 11.1023 60.3743 11.5585 60.1253 12.094C59.8746 12.6314 59.751 13.2409 59.751 13.9207V18.9426C59.751 19.269 59.862 19.5431 60.0859 19.7685C60.3098 19.9939 60.5821 20.1057 60.9063 20.1057C61.2305 20.1057 61.5028 19.9939 61.7267 19.7685C61.9506 19.5431 62.0616 19.269 62.0616 18.9426V14.5121C62.0616 13.5871 62.2819 12.882 62.7208 12.3988C63.1596 11.9155 63.8188 11.6739 64.6983 11.6739C65.5634 11.6739 66.219 11.9155 66.665 12.3988C67.111 12.882 67.3349 13.5871 67.3349 14.5121V18.9408C67.3349 19.2672 67.446 19.5413 67.6699 19.7667C67.8938 19.9921 68.166 20.1039 68.4902 20.1039C68.8144 20.1039 69.0867 19.9921 69.3106 19.7667C69.5345 19.5413 69.6456 19.2672 69.6456 18.9408V13.9207C69.6438 13.2409 69.522 12.6314 69.2784 12.094Z" fill="white"/>
<path d="M81.4315 14.9521C80.81 14.4833 79.9377 14.1731 78.8164 14.0235L76.7476 13.7584C76.1941 13.6917 75.7678 13.5636 75.4704 13.3815C75.1731 13.1976 75.0244 12.9289 75.0244 12.5755C75.0244 11.746 75.809 11.3313 77.3763 11.3313C77.9441 11.3313 78.4438 11.3764 78.8773 11.4629C79.309 11.5513 79.6815 11.654 79.9932 11.7695C80.0451 11.7893 80.0846 11.8073 80.1311 11.8272C80.1526 11.838 80.1741 11.847 80.1974 11.8542C80.2959 11.8903 80.4016 11.9101 80.5162 11.9101C80.7706 11.9101 80.9855 11.8217 81.1611 11.645C81.3366 11.4683 81.4244 11.2519 81.4244 10.9959C81.4244 10.7398 81.3366 10.5234 81.1611 10.3467C81.0733 10.2584 80.9766 10.1935 80.8709 10.1502C80.8691 10.1502 80.8691 10.1484 80.8673 10.1484C80.7921 10.1123 80.7168 10.0762 80.6327 10.0438C79.8553 9.73003 78.7644 9.57495 77.3584 9.57495C76.5201 9.57495 75.8072 9.6597 75.2197 9.8292C74.6322 10.0005 74.1557 10.2349 73.7903 10.5325C73.4249 10.8318 73.158 11.1762 72.9896 11.5639C72.8212 11.9516 72.7371 12.3627 72.7371 12.7991C72.7371 13.3022 72.8284 13.735 73.0111 14.0956C73.1938 14.4562 73.4464 14.7592 73.7706 15.0044C74.0948 15.2496 74.4835 15.4426 74.9367 15.5868C75.3898 15.7293 75.886 15.8285 76.4269 15.8826L78.0086 16.0665C78.7376 16.1476 79.2445 16.2883 79.5293 16.4848C79.8123 16.6814 79.9556 16.9717 79.9556 17.3522C79.9556 17.8012 79.7317 18.1167 79.2857 18.3007C78.8397 18.4846 78.2647 18.5766 77.5625 18.5766C77.0216 18.5766 76.5219 18.5369 76.0615 18.4539C75.6012 18.371 75.1928 18.2736 74.8346 18.1582C74.5838 18.0771 74.3724 17.9995 74.1772 17.922C74.1664 17.9166 74.1557 17.913 74.1449 17.9094C74.0428 17.8697 73.9318 17.8481 73.8118 17.8481C73.5574 17.8481 73.3425 17.9364 73.1687 18.1113C72.9932 18.2881 72.9054 18.5026 72.9054 18.7587C72.9054 19.0147 72.9932 19.2293 73.1687 19.406C73.2529 19.4926 73.3479 19.5557 73.4518 19.599C73.4571 19.6008 73.4625 19.6044 73.4697 19.6062C73.6685 19.6873 73.8906 19.7685 74.1449 19.8514C74.5838 19.9939 75.1014 20.1201 75.6961 20.2283C76.2908 20.3365 76.9535 20.3924 77.6826 20.3924C79.1961 20.3924 80.355 20.0858 81.1593 19.4746C81.9635 18.8615 82.3665 18.0464 82.3665 17.0258C82.3647 16.1116 82.0531 15.421 81.4315 14.9521Z" fill="white"/>
<path d="M43.6964 14.9521C43.0749 14.4833 42.2026 14.1731 41.0813 14.0235L39.0124 13.7584C38.459 13.6917 38.0327 13.5636 37.7353 13.3815C37.438 13.1976 37.2893 12.9289 37.2893 12.5755C37.2893 11.746 38.0739 11.3313 39.6412 11.3313C40.209 11.3313 40.7087 11.3764 41.1422 11.4629C41.5739 11.5513 41.9464 11.654 42.2581 11.7695C42.31 11.7893 42.3494 11.8073 42.396 11.8272C42.4175 11.838 42.439 11.847 42.4623 11.8542C42.5608 11.8903 42.6665 11.9101 42.7811 11.9101C43.0355 11.9101 43.2504 11.8217 43.426 11.645C43.6015 11.4683 43.6893 11.2519 43.6893 10.9959C43.6893 10.7398 43.6015 10.5234 43.426 10.3467C43.3382 10.2584 43.2415 10.1935 43.1358 10.1502C43.134 10.1502 43.134 10.1484 43.1322 10.1484C43.057 10.1123 42.9817 10.0762 42.8976 10.0438C42.1202 9.73003 41.0293 9.57495 39.6232 9.57495C38.785 9.57495 38.0721 9.6597 37.4846 9.8292C36.897 10.0005 36.4206 10.2349 36.0552 10.5325C35.6898 10.8318 35.4229 11.1762 35.2545 11.5639C35.0861 11.9516 35.002 12.3627 35.002 12.7991C35.002 13.3022 35.0933 13.735 35.276 14.0956C35.4587 14.4562 35.7113 14.7592 36.0355 15.0044C36.3597 15.2496 36.7484 15.4426 37.2015 15.5868C37.6547 15.7293 38.1509 15.8285 38.6918 15.8826L40.2734 16.0665C41.0025 16.1476 41.5094 16.2883 41.7942 16.4848C42.0772 16.6814 42.2205 16.9717 42.2205 17.3522C42.2205 17.8012 41.9966 18.1167 41.5506 18.3007C41.1046 18.4846 40.5296 18.5766 39.8274 18.5766C39.2865 18.5766 38.7868 18.5369 38.3264 18.4539C37.8661 18.371 37.4577 18.2736 37.0994 18.1582C36.8487 18.0771 36.6373 17.9995 36.4421 17.922C36.4313 17.9166 36.4206 17.913 36.4098 17.9094C36.3077 17.8697 36.1967 17.8481 36.0767 17.8481C35.8223 17.8481 35.6074 17.9364 35.4336 18.1113C35.2581 18.2881 35.1703 18.5026 35.1703 18.7587C35.1703 19.0147 35.2581 19.2293 35.4336 19.406C35.5178 19.4926 35.6127 19.5557 35.7166 19.599C35.722 19.6008 35.7274 19.6044 35.7346 19.6062C35.9334 19.6873 36.1555 19.7685 36.4098 19.8514C36.8487 19.9939 37.3663 20.1201 37.961 20.2283C38.5557 20.3365 39.2184 20.3924 39.9475 20.3924C41.461 20.3924 42.6199 20.0858 43.4242 19.4746C44.2284 18.8615 44.6314 18.0464 44.6314 17.0258C44.6296 16.1116 44.318 15.421 43.6964 14.9521Z" fill="white"/>
<path d="M56.6271 11.6559C56.4372 11.2466 56.1578 10.8896 55.7852 10.5848C55.4127 10.2783 54.9577 10.0331 54.4168 9.84913C53.8758 9.66521 53.2543 9.57324 52.5521 9.57324C51.755 9.57324 51.0224 9.70668 50.3525 9.97175C49.6844 10.2368 49.1023 10.6119 48.6097 11.0933C48.1153 11.5766 47.7302 12.1554 47.4544 12.828C47.1767 13.5006 47.0388 14.2472 47.0388 15.0622C47.0388 15.9187 47.1803 16.6779 47.4651 17.3379C47.7499 17.9978 48.1368 18.555 48.6312 19.0112C49.1238 19.4675 49.6987 19.8101 50.3543 20.0427C51.0099 20.2735 51.7156 20.3889 52.4733 20.3889C53.0143 20.3889 53.5104 20.3474 53.9636 20.2663C54.4168 20.1851 54.8162 20.0896 55.1601 19.9796C55.3285 19.9255 55.4825 19.8714 55.624 19.8155C55.6258 19.8137 55.6294 19.8137 55.6312 19.8137C55.7405 19.7686 55.8408 19.7001 55.9321 19.6099C56.113 19.4278 56.2044 19.2042 56.2044 18.9409C56.2044 18.8255 56.1847 18.7191 56.1489 18.6199C56.1202 18.537 56.079 18.4595 56.0271 18.3855C55.9984 18.3459 55.9679 18.3062 55.9321 18.2701C55.7512 18.088 55.5291 17.9978 55.2676 17.9978C55.1368 17.9978 55.015 18.0213 54.9058 18.0664C54.9058 18.0664 54.9058 18.0664 54.904 18.0664C54.8359 18.0916 54.7696 18.1187 54.6944 18.1439C54.458 18.225 54.1911 18.2936 53.8937 18.3477C53.5964 18.4018 53.2722 18.4288 52.9211 18.4288C51.8804 18.4288 51.0798 18.2142 50.5191 17.7851C49.9585 17.3559 49.6235 16.7951 49.516 16.1009C49.7865 16.1135 50.0391 16.1243 50.2755 16.1315C50.512 16.1387 50.7645 16.1405 51.035 16.1405C52.1975 16.1405 53.1576 16.063 53.9134 15.9061C54.6711 15.7492 55.2712 15.5329 55.7172 15.2534C56.1632 14.9757 56.4748 14.6403 56.6504 14.2544C56.8259 13.8667 56.9137 13.4339 56.9137 12.9579C56.9101 12.498 56.8152 12.0635 56.6271 11.6559ZM54.5386 13.5133C54.458 13.7044 54.2878 13.8739 54.0317 14.0236C53.7755 14.1732 53.4173 14.2958 52.9569 14.3914C52.4966 14.487 51.8965 14.5339 51.1532 14.5339C50.8684 14.5339 50.5854 14.5339 50.3024 14.5339C50.0176 14.5339 49.7202 14.5267 49.4104 14.514C49.4229 14.1191 49.5017 13.7314 49.6432 13.351C49.7847 12.9705 49.9853 12.6333 50.2415 12.3412C50.4976 12.0491 50.8165 11.8146 51.1944 11.6379C51.5723 11.4612 52.0112 11.3728 52.5127 11.3728C53.1217 11.3728 53.6304 11.5027 54.0424 11.7605C54.4544 12.0184 54.6604 12.4061 54.6604 12.9236C54.6604 13.1238 54.6192 13.3221 54.5386 13.5133Z" fill="white"/>
<path d="M126 13.9207C126 13.1309 125.869 12.4583 125.604 11.9011C125.341 11.3439 124.972 10.8949 124.499 10.5541C124.026 10.2133 123.462 9.96625 122.806 9.80937C122.151 9.65249 121.424 9.57495 120.627 9.57495C119.964 9.57495 119.417 9.61643 118.984 9.69757C118.551 9.77871 118.207 9.89232 117.95 10.0348C117.902 10.0618 117.861 10.0889 117.818 10.1177C117.804 10.1267 117.789 10.1339 117.775 10.1448C117.73 10.1754 117.687 10.2097 117.648 10.2512C117.472 10.4279 117.383 10.6461 117.383 10.9021C117.383 11.16 117.47 11.3764 117.648 11.5531C117.823 11.7298 118.04 11.8181 118.294 11.8181C118.418 11.8181 118.533 11.7965 118.637 11.755C118.644 11.7532 118.649 11.7496 118.656 11.7478C118.683 11.737 118.703 11.728 118.731 11.719C119.197 11.5423 119.817 11.4539 120.587 11.4539C121.047 11.4539 121.467 11.4882 121.845 11.5567C122.223 11.6252 122.547 11.7478 122.817 11.9245C123.088 12.1012 123.301 12.3465 123.457 12.6602C123.612 12.974 123.689 13.3671 123.689 13.8431C123.46 13.8161 123.115 13.7854 122.656 13.7512C122.196 13.7169 121.71 13.7007 121.196 13.7007C120.304 13.7007 119.546 13.7728 118.925 13.9153C118.303 14.0577 117.8 14.2723 117.415 14.5572C117.03 14.8439 116.752 15.1974 116.584 15.6193C116.414 16.0413 116.329 16.5317 116.329 17.0889C116.329 17.5109 116.401 17.922 116.543 18.3241C116.684 18.7262 116.947 19.0797 117.333 19.3862C117.718 19.6928 118.244 19.938 118.914 20.1219C119.584 20.3059 120.446 20.3978 121.499 20.3978C122.025 20.3978 122.532 20.3834 123.02 20.3563C123.507 20.3293 123.946 20.2986 124.338 20.2644C124.508 20.25 124.666 20.2355 124.816 20.2193C125.148 20.1923 125.427 20.1039 125.656 19.8713C125.886 19.6405 126 19.3556 126 19.0202C126 19.0148 125.998 19.0093 125.998 19.0039H126V13.9207ZM123.709 18.5135C123.587 18.5405 123.344 18.5784 122.978 18.6253C122.613 18.6721 122.12 18.6974 121.499 18.6974C120.944 18.6974 120.481 18.6595 120.111 18.5856C119.738 18.5117 119.444 18.4017 119.229 18.2592C119.013 18.1168 118.86 17.9418 118.773 17.7381C118.685 17.5343 118.64 17.3089 118.64 17.0637C118.64 16.465 118.85 16.0268 119.269 15.7473C119.688 15.4678 120.356 15.329 121.277 15.329C122.02 15.329 122.577 15.356 122.95 15.4101C123.321 15.4642 123.575 15.5057 123.709 15.5328V18.5135Z" fill="white"/>
</g>
<path d="M38.6851 36.088C38.1058 36.088 37.5448 36 37.0021 35.824C36.4668 35.6407 36.0451 35.406 35.7371 35.12L36.1441 34.262C36.4375 34.526 36.8115 34.7423 37.2661 34.911C37.7281 35.0723 38.2011 35.153 38.6851 35.153C39.3231 35.153 39.7998 35.0467 40.1151 34.834C40.4305 34.614 40.5881 34.3243 40.5881 33.965C40.5881 33.701 40.5001 33.4883 40.3241 33.327C40.1555 33.1583 39.9428 33.03 39.6861 32.942C39.4368 32.854 39.0811 32.755 38.6191 32.645C38.0398 32.5057 37.5705 32.3663 37.2111 32.227C36.8591 32.0877 36.5548 31.875 36.2981 31.589C36.0488 31.2957 35.9241 30.9033 35.9241 30.412C35.9241 30.0013 36.0305 29.631 36.2431 29.301C36.4631 28.971 36.7931 28.707 37.2331 28.509C37.6731 28.311 38.2195 28.212 38.8721 28.212C39.3268 28.212 39.7741 28.2707 40.2141 28.388C40.6541 28.5053 41.0318 28.674 41.3471 28.894L40.9841 29.774C40.6615 29.5687 40.3168 29.4147 39.9501 29.312C39.5835 29.202 39.2241 29.147 38.8721 29.147C38.2488 29.147 37.7795 29.2607 37.4641 29.488C37.1561 29.7153 37.0021 30.0087 37.0021 30.368C37.0021 30.632 37.0901 30.8483 37.2661 31.017C37.4421 31.1783 37.6585 31.3067 37.9151 31.402C38.1791 31.49 38.5348 31.5853 38.9821 31.688C39.5615 31.8273 40.0271 31.9667 40.3791 32.106C40.7311 32.2453 41.0318 32.458 41.2811 32.744C41.5378 33.03 41.6661 33.415 41.6661 33.899C41.6661 34.3023 41.5561 34.6727 41.3361 35.01C41.1161 35.34 40.7825 35.604 40.3351 35.802C39.8878 35.9927 39.3378 36.088 38.6851 36.088ZM45.6162 36.066C45.0368 36.066 44.5162 35.9377 44.0542 35.681C43.5922 35.4243 43.2292 35.0723 42.9652 34.625C42.7085 34.1703 42.5802 33.657 42.5802 33.085C42.5802 32.513 42.7085 32.0033 42.9652 31.556C43.2292 31.1013 43.5922 30.7493 44.0542 30.5C44.5162 30.2433 45.0368 30.115 45.6162 30.115C46.1955 30.115 46.7125 30.2433 47.1672 30.5C47.6292 30.7493 47.9885 31.1013 48.2452 31.556C48.5092 32.0033 48.6412 32.513 48.6412 33.085C48.6412 33.657 48.5092 34.1703 48.2452 34.625C47.9885 35.0723 47.6292 35.4243 47.1672 35.681C46.7125 35.9377 46.1955 36.066 45.6162 36.066ZM45.6162 35.142C45.9902 35.142 46.3238 35.0577 46.6172 34.889C46.9178 34.713 47.1525 34.471 47.3212 34.163C47.4898 33.8477 47.5742 33.4883 47.5742 33.085C47.5742 32.6817 47.4898 32.326 47.3212 32.018C47.1525 31.7027 46.9178 31.4607 46.6172 31.292C46.3238 31.1233 45.9902 31.039 45.6162 31.039C45.2422 31.039 44.9048 31.1233 44.6042 31.292C44.3108 31.4607 44.0762 31.7027 43.9002 32.018C43.7315 32.326 43.6472 32.6817 43.6472 33.085C43.6472 33.4883 43.7315 33.8477 43.9002 34.163C44.0762 34.471 44.3108 34.713 44.6042 34.889C44.9048 35.0577 45.2422 35.142 45.6162 35.142ZM52.6426 36.066C52.0486 36.066 51.5169 35.9377 51.0476 35.681C50.5856 35.4243 50.2226 35.0723 49.9586 34.625C49.6946 34.1703 49.5626 33.657 49.5626 33.085C49.5626 32.513 49.6946 32.0033 49.9586 31.556C50.2226 31.1013 50.5856 30.7493 51.0476 30.5C51.5169 30.2433 52.0486 30.115 52.6426 30.115C53.1706 30.115 53.6399 30.2213 54.0506 30.434C54.4686 30.6467 54.7913 30.9547 55.0186 31.358L54.2156 31.875C54.0323 31.5963 53.8049 31.3873 53.5336 31.248C53.2623 31.1087 52.9616 31.039 52.6316 31.039C52.2503 31.039 51.9056 31.1233 51.5976 31.292C51.2969 31.4607 51.0586 31.7027 50.8826 32.018C50.7139 32.326 50.6296 32.6817 50.6296 33.085C50.6296 33.4957 50.7139 33.8587 50.8826 34.174C51.0586 34.482 51.2969 34.7203 51.5976 34.889C51.9056 35.0577 52.2503 35.142 52.6316 35.142C52.9616 35.142 53.2623 35.0723 53.5336 34.933C53.8049 34.7937 54.0323 34.5847 54.2156 34.306L55.0186 34.812C54.7913 35.2153 54.4686 35.527 54.0506 35.747C53.6399 35.9597 53.1706 36.066 52.6426 36.066ZM58.8408 36.066C58.2468 36.066 57.7152 35.9377 57.2458 35.681C56.7838 35.4243 56.4208 35.0723 56.1568 34.625C55.8928 34.1703 55.7608 33.657 55.7608 33.085C55.7608 32.513 55.8928 32.0033 56.1568 31.556C56.4208 31.1013 56.7838 30.7493 57.2458 30.5C57.7152 30.2433 58.2468 30.115 58.8408 30.115C59.3688 30.115 59.8382 30.2213 60.2488 30.434C60.6668 30.6467 60.9895 30.9547 61.2168 31.358L60.4138 31.875C60.2305 31.5963 60.0032 31.3873 59.7318 31.248C59.4605 31.1087 59.1598 31.039 58.8298 31.039C58.4485 31.039 58.1038 31.1233 57.7958 31.292C57.4952 31.4607 57.2568 31.7027 57.0808 32.018C56.9122 32.326 56.8278 32.6817 56.8278 33.085C56.8278 33.4957 56.9122 33.8587 57.0808 34.174C57.2568 34.482 57.4952 34.7203 57.7958 34.889C58.1038 35.0577 58.4485 35.142 58.8298 35.142C59.1598 35.142 59.4605 35.0723 59.7318 34.933C60.0032 34.7937 60.2305 34.5847 60.4138 34.306L61.2168 34.812C60.9895 35.2153 60.6668 35.527 60.2488 35.747C59.8382 35.9597 59.3688 36.066 58.8408 36.066ZM67.7671 33.118C67.7671 33.1987 67.7597 33.305 67.7451 33.437H63.0151C63.0811 33.9503 63.3047 34.3647 63.6861 34.68C64.0747 34.988 64.5551 35.142 65.1271 35.142C65.8237 35.142 66.3847 34.9073 66.8101 34.438L67.3931 35.12C67.1291 35.428 66.7991 35.6627 66.4031 35.824C66.0144 35.9853 65.5781 36.066 65.0941 36.066C64.4781 36.066 63.9317 35.9413 63.4551 35.692C62.9784 35.4353 62.6081 35.0797 62.3441 34.625C62.0874 34.1703 61.9591 33.657 61.9591 33.085C61.9591 32.5203 62.0837 32.0107 62.3331 31.556C62.5897 31.1013 62.9381 30.7493 63.3781 30.5C63.8254 30.2433 64.3277 30.115 64.8851 30.115C65.4424 30.115 65.9374 30.2433 66.3701 30.5C66.8101 30.7493 67.1511 31.1013 67.3931 31.556C67.6424 32.0107 67.7671 32.5313 67.7671 33.118ZM64.8851 31.006C64.3791 31.006 63.9537 31.16 63.6091 31.468C63.2717 31.776 63.0737 32.1793 63.0151 32.678H66.7551C66.6964 32.1867 66.4947 31.787 66.1501 31.479C65.8127 31.1637 65.3911 31.006 64.8851 31.006ZM70.2454 31.149C70.4288 30.8117 70.7001 30.555 71.0594 30.379C71.4188 30.203 71.8551 30.115 72.3684 30.115V31.138C72.3098 31.1307 72.2291 31.127 72.1264 31.127C71.5544 31.127 71.1034 31.2993 70.7734 31.644C70.4508 31.9813 70.2894 32.4653 70.2894 33.096V36H69.2334V30.17H70.2454V31.149ZM83.9922 36L83.9812 30.39L81.1982 35.065H80.6922L77.9092 30.423V36H76.8532V28.3H77.7552L80.9672 33.712L84.1352 28.3H85.0372L85.0482 36H83.9922ZM89.3281 30.115C90.1348 30.115 90.7508 30.313 91.1761 30.709C91.6088 31.105 91.8251 31.6953 91.8251 32.48V36H90.8241V35.23C90.6481 35.5013 90.3951 35.7103 90.0651 35.857C89.7424 35.9963 89.3574 36.066 88.9101 36.066C88.2574 36.066 87.7331 35.9083 87.3371 35.593C86.9484 35.2777 86.7541 34.8633 86.7541 34.35C86.7541 33.8367 86.9411 33.426 87.3151 33.118C87.6891 32.8027 88.2831 32.645 89.0971 32.645H90.7691V32.436C90.7691 31.9813 90.6371 31.633 90.3731 31.391C90.1091 31.149 89.7204 31.028 89.2071 31.028C88.8624 31.028 88.5251 31.0867 88.1951 31.204C87.8651 31.314 87.5864 31.4643 87.3591 31.655L86.9191 30.863C87.2198 30.621 87.5791 30.4377 87.9971 30.313C88.4151 30.181 88.8588 30.115 89.3281 30.115ZM89.0861 35.252C89.4894 35.252 89.8378 35.164 90.1311 34.988C90.4244 34.8047 90.6371 34.548 90.7691 34.218V33.404H89.1411C88.2464 33.404 87.7991 33.7047 87.7991 34.306C87.7991 34.5993 87.9128 34.8303 88.1401 34.999C88.3674 35.1677 88.6828 35.252 89.0861 35.252ZM96.8923 30.115C97.633 30.115 98.2197 30.3313 98.6523 30.764C99.0923 31.1893 99.3123 31.8163 99.3123 32.645V36H98.2563V32.766C98.2563 32.2013 98.1207 31.776 97.8493 31.49C97.578 31.204 97.1893 31.061 96.6833 31.061C96.1113 31.061 95.6603 31.2297 95.3303 31.567C95.0003 31.897 94.8353 32.3737 94.8353 32.997V36H93.7793V30.17H94.7913V31.05C95.004 30.7493 95.29 30.5183 95.6493 30.357C96.016 30.1957 96.4303 30.115 96.8923 30.115ZM103.39 30.115C104.196 30.115 104.812 30.313 105.238 30.709C105.67 31.105 105.887 31.6953 105.887 32.48V36H104.886V35.23C104.71 35.5013 104.457 35.7103 104.127 35.857C103.804 35.9963 103.419 36.066 102.972 36.066C102.319 36.066 101.795 35.9083 101.399 35.593C101.01 35.2777 100.816 34.8633 100.816 34.35C100.816 33.8367 101.003 33.426 101.377 33.118C101.751 32.8027 102.345 32.645 103.159 32.645H104.831V32.436C104.831 31.9813 104.699 31.633 104.435 31.391C104.171 31.149 103.782 31.028 103.269 31.028C102.924 31.028 102.587 31.0867 102.257 31.204C101.927 31.314 101.648 31.4643 101.421 31.655L100.981 30.863C101.281 30.621 101.641 30.4377 102.059 30.313C102.477 30.181 102.92 30.115 103.39 30.115ZM103.148 35.252C103.551 35.252 103.899 35.164 104.193 34.988C104.486 34.8047 104.699 34.548 104.831 34.218V33.404H103.203C102.308 33.404 101.861 33.7047 101.861 34.306C101.861 34.5993 101.974 34.8303 102.202 34.999C102.429 35.1677 102.744 35.252 103.148 35.252ZM113.45 30.17V35.208C113.45 36.2273 113.197 36.979 112.691 37.463C112.185 37.9543 111.43 38.2 110.425 38.2C109.875 38.2 109.351 38.123 108.852 37.969C108.353 37.8223 107.95 37.6097 107.642 37.331L108.148 36.517C108.419 36.7517 108.753 36.935 109.149 37.067C109.552 37.2063 109.967 37.276 110.392 37.276C111.074 37.276 111.576 37.1147 111.899 36.792C112.229 36.4693 112.394 35.978 112.394 35.318V34.856C112.145 35.1567 111.837 35.384 111.47 35.538C111.111 35.6847 110.718 35.758 110.293 35.758C109.736 35.758 109.23 35.6407 108.775 35.406C108.328 35.164 107.976 34.8303 107.719 34.405C107.462 33.9723 107.334 33.481 107.334 32.931C107.334 32.381 107.462 31.8933 107.719 31.468C107.976 31.0353 108.328 30.7017 108.775 30.467C109.23 30.2323 109.736 30.115 110.293 30.115C110.733 30.115 111.14 30.1957 111.514 30.357C111.895 30.5183 112.207 30.7567 112.449 31.072V30.17H113.45ZM110.414 34.834C110.795 34.834 111.136 34.7533 111.437 34.592C111.745 34.4307 111.983 34.207 112.152 33.921C112.328 33.6277 112.416 33.2977 112.416 32.931C112.416 32.3663 112.229 31.9117 111.855 31.567C111.481 31.215 111.001 31.039 110.414 31.039C109.82 31.039 109.336 31.215 108.962 31.567C108.588 31.9117 108.401 32.3663 108.401 32.931C108.401 33.2977 108.485 33.6277 108.654 33.921C108.83 34.207 109.068 34.4307 109.369 34.592C109.677 34.7533 110.025 34.834 110.414 34.834ZM120.737 33.118C120.737 33.1987 120.729 33.305 120.715 33.437H115.985C116.051 33.9503 116.274 34.3647 116.656 34.68C117.044 34.988 117.525 35.142 118.097 35.142C118.793 35.142 119.354 34.9073 119.78 34.438L120.363 35.12C120.099 35.428 119.769 35.6627 119.373 35.824C118.984 35.9853 118.548 36.066 118.064 36.066C117.448 36.066 116.901 35.9413 116.425 35.692C115.948 35.4353 115.578 35.0797 115.314 34.625C115.057 34.1703 114.929 33.657 114.929 33.085C114.929 32.5203 115.053 32.0107 115.303 31.556C115.559 31.1013 115.908 30.7493 116.348 30.5C116.795 30.2433 117.297 30.115 117.855 30.115C118.412 30.115 118.907 30.2433 119.34 30.5C119.78 30.7493 120.121 31.1013 120.363 31.556C120.612 32.0107 120.737 32.5313 120.737 33.118ZM117.855 31.006C117.349 31.006 116.923 31.16 116.579 31.468C116.241 31.776 116.043 32.1793 115.985 32.678H119.725C119.666 32.1867 119.464 31.787 119.12 31.479C118.782 31.1637 118.361 31.006 117.855 31.006ZM123.215 31.149C123.398 30.8117 123.67 30.555 124.029 30.379C124.388 30.203 124.825 30.115 125.338 30.115V31.138C125.279 31.1307 125.199 31.127 125.096 31.127C124.524 31.127 124.073 31.2993 123.743 31.644C123.42 31.9813 123.259 32.4653 123.259 33.096V36H122.203V30.17H123.215V31.149Z" fill="#B1B1B1"/>
<defs>
<clipPath id="clip0_8_2618">
<rect width="126" height="30" fill="white"/>
</clipPath>
</defs>
</svg>
