<svg width="46" height="46" viewBox="0 0 46 46" fill="none" xmlns="http://www.w3.org/2000/svg">
<path d="M1.55305 32.75H28.197C28.3681 32.7501 28.5376 32.7165 28.6958 32.6511C28.8539 32.5856 28.9976 32.4897 29.1186 32.3686C29.2397 32.2476 29.3356 32.1039 29.4011 31.9458C29.4665 31.7876 29.5001 31.6181 29.5 31.447V27.553C29.5001 27.3819 29.4665 27.2124 29.4011 27.0542C29.3356 26.8961 29.2397 26.7524 29.1186 26.6314C28.9976 26.5103 28.8539 26.4144 28.6958 26.3489C28.5376 26.2835 28.3681 26.2499 28.197 26.25H1.55305C1.38189 26.2499 1.21239 26.2835 1.05423 26.3489C0.896082 26.4144 0.752382 26.5103 0.631356 26.6314C0.51033 26.7524 0.414354 26.8961 0.348917 27.0542C0.28348 27.2124 0.249867 27.3819 0.25 27.553V31.447C0.249867 31.6181 0.28348 31.7876 0.348917 31.9458C0.414354 32.1039 0.51033 32.2476 0.631356 32.3686C0.752382 32.4897 0.896082 32.5856 1.05423 32.6511C1.21239 32.7165 1.38189 32.7501 1.55305 32.75ZM1.55305 6.75H28.197C28.3681 6.75013 28.5376 6.71652 28.6958 6.65108C28.8539 6.58565 28.9976 6.48967 29.1186 6.36864C29.2397 6.24762 29.3356 6.10392 29.4011 5.94577C29.4665 5.78761 29.5001 5.61811 29.5 5.44695V1.55305C29.5001 1.38189 29.4665 1.21239 29.4011 1.05423C29.3356 0.896082 29.2397 0.752382 29.1186 0.631356C28.9976 0.51033 28.8539 0.414354 28.6958 0.348917C28.5376 0.28348 28.3681 0.249867 28.197 0.25H1.55305C1.38189 0.249867 1.21239 0.28348 1.05423 0.348917C0.896082 0.414354 0.752382 0.51033 0.631356 0.631356C0.51033 0.752382 0.414354 0.896082 0.348917 1.05423C0.28348 1.21239 0.249867 1.38189 0.25 1.55305V5.44695C0.249867 5.61811 0.28348 5.78761 0.348917 5.94577C0.414354 6.10392 0.51033 6.24762 0.631356 6.36864C0.752382 6.48967 0.896082 6.58565 1.05423 6.65108C1.21239 6.71652 1.38189 6.75013 1.55305 6.75ZM44.125 13.25H1.875C1.44402 13.25 1.0307 13.4212 0.725952 13.726C0.421205 14.0307 0.25 14.444 0.25 14.875V18.125C0.25 18.556 0.421205 18.9693 0.725952 19.274C1.0307 19.5788 1.44402 19.75 1.875 19.75H44.125C44.556 19.75 44.9693 19.5788 45.274 19.274C45.5788 18.9693 45.75 18.556 45.75 18.125V14.875C45.75 14.444 45.5788 14.0307 45.274 13.726C44.9693 13.4212 44.556 13.25 44.125 13.25ZM44.125 39.25H1.875C1.44402 39.25 1.0307 39.4212 0.725952 39.726C0.421205 40.0307 0.25 40.444 0.25 40.875V44.125C0.25 44.556 0.421205 44.9693 0.725952 45.274C1.0307 45.5788 1.44402 45.75 1.875 45.75H44.125C44.556 45.75 44.9693 45.5788 45.274 45.274C45.5788 44.9693 45.75 44.556 45.75 44.125V40.875C45.75 40.444 45.5788 40.0307 45.274 39.726C44.9693 39.4212 44.556 39.25 44.125 39.25Z" fill="white"/>
</svg>
