<svg width="52" height="48" viewBox="0 0 52 48" fill="none" xmlns="http://www.w3.org/2000/svg">
<path d="M49.8333 6.66669H40.4444V3.05558C40.4444 1.85489 39.4785 0.888916 38.2778 0.888916H13.7222C12.5215 0.888916 11.5556 1.85489 11.5556 3.05558V6.66669H2.16667C0.965972 6.66669 0 7.63267 0 8.83336V13.8889C0 17.1118 2.03125 20.425 5.58819 22.9799C8.43194 25.0292 11.8896 26.3292 15.5187 26.7445C18.3535 31.4479 21.6667 33.3889 21.6667 33.3889V39.8889H17.3333C14.1465 39.8889 11.5556 41.7577 11.5556 44.9445V46.0278C11.5556 46.6236 12.0431 47.1111 12.6389 47.1111H39.3611C39.9569 47.1111 40.4444 46.6236 40.4444 46.0278V44.9445C40.4444 41.7577 37.8535 39.8889 34.6667 39.8889H30.3333V33.3889C30.3333 33.3889 33.6465 31.4479 36.4813 26.7445C40.1194 26.3292 43.5771 25.0292 46.4118 22.9799C49.9597 20.425 52 17.1118 52 13.8889V8.83336C52 7.63267 51.034 6.66669 49.8333 6.66669ZM8.96458 18.2945C6.76181 16.7056 5.77778 14.9361 5.77778 13.8889V12.4445H11.5736C11.6639 15.3875 12.0972 17.9695 12.7292 20.2264C11.366 19.757 10.0931 19.107 8.96458 18.2945ZM46.2222 13.8889C46.2222 15.3424 44.6243 17.1479 43.0354 18.2945C41.9069 19.107 40.625 19.757 39.2618 20.2264C39.8937 17.9695 40.3271 15.3875 40.4174 12.4445H46.2222V13.8889Z" fill="white"/>
</svg>
