<svg width="50" height="52" viewBox="0 0 50 52" fill="none" xmlns="http://www.w3.org/2000/svg">
<path d="M10.067 22.7732C11.0603 17.8518 14.2411 13.7545 18.5156 11.6652C18.9174 12.2339 21.6406 16.1687 24.1741 20.8348C17.0312 22.808 10.7478 22.7848 10.067 22.7732ZM35.1116 14.1607C31.3616 10.7018 26.2612 9.39018 21.4286 10.6089C21.8527 11.2009 24.6205 15.1241 27.1205 19.8946C32.5446 17.7705 34.8326 14.567 35.1116 14.1607ZM15.6362 38.5357C20.1562 42.2036 26.0491 42.7955 30.9598 40.625C30.7366 39.2321 29.8438 34.3804 27.7009 28.6C21.5513 30.7821 17.2321 35.1464 15.6362 38.5357ZM26.6629 25.9768C26.2835 25.0714 25.8594 24.1777 25.4241 23.2839C17.8125 25.6518 10.4241 25.5589 9.75446 25.5357C9.75446 25.6982 9.7433 25.8607 9.7433 26.0232C9.7433 30.0973 11.2277 33.8116 13.6607 36.6321C16.1384 32.233 21.1496 27.5902 26.6629 25.9768ZM30.558 27.8687C32.5558 33.5679 33.3594 38.2107 33.5156 39.1741C36.942 36.7714 39.375 32.9527 40.0558 28.542C39.5424 28.3679 35.3348 27.0679 30.558 27.8687ZM28.2924 22.2509C28.8281 23.3884 29.2188 24.317 29.6317 25.3616C34.7098 24.7 39.7545 25.7562 40.2567 25.8723C40.2232 22.1232 38.9397 18.6875 36.808 15.9946C36.4844 16.4473 33.9286 19.8482 28.2924 22.2509ZM50 5.57143V46.4286C50 49.5045 47.6004 52 44.6429 52H5.35714C2.39955 52 0 49.5045 0 46.4286V5.57143C0 2.49554 2.39955 0 5.35714 0H44.6429C47.6004 0 50 2.49554 50 5.57143ZM42.8571 26C42.8571 15.7625 34.8438 7.42857 25 7.42857C15.1562 7.42857 7.14286 15.7625 7.14286 26C7.14286 36.2375 15.1562 44.5714 25 44.5714C34.8438 44.5714 42.8571 36.2375 42.8571 26Z" fill="white"/>
</svg>
